<?xml version="1.0" encoding="utf-8"?>
<!-- Generator: Adobe Illustrator 26.0.0, SVG Export Plug-In . SVG Version: 6.00 Build 0)  -->
<svg version="1.1" id="Layer_1" xmlns="http://www.w3.org/2000/svg" xmlns:xlink="http://www.w3.org/1999/xlink" x="0px" y="0px"
	 viewBox="0 0 500 700" enable-background="new 0 0 500 700" xml:space="preserve">
<rect fill="#063754" stroke="#231F20" stroke-miterlimit="10" width="500" height="700"/>
<g>
	<path fill="#FFFFFF" d="M177.2,623.2c3.3,3.6,7.2,6.8,12,9.6c4.7,2.8,10.2,4.1,16.3,4.1c7.1,0,12.7-1.7,16.9-5
		c4.2-3.3,6.3-8,6.3-14.2c0-6-1.9-10.5-5.8-13.5c-3.9-2.9-9.7-5.8-17.4-8.7l-5.9-2.5c-8.3-2.9-15.2-6.9-20.8-11.8
		c-5.5-5-8.3-11.5-8.3-19.7c0-8.3,3.2-14.9,9.6-19.8c6.4-4.9,14.4-7.3,24.1-7.3c7.4,0,13.6,1.1,18.6,3.3c5,2.2,9.5,5.4,13.6,9.6
		l-6.8,7.8c-3-2.8-6.5-5.2-10.4-7.5c-4-2.2-8.9-3.3-14.7-3.3c-6.3,0-11.5,1.5-15.7,4.5c-4.2,3-6.3,6.8-6.3,11.5
		c0,5.7,2.3,10.2,7,13.4c4.7,3.2,9.5,5.8,14.5,7.7l10.2,4.3c10.5,3.9,17.6,8.2,21.3,12.7s5.6,10.4,5.6,17.8
		c0,9.8-3.4,17.3-10.3,22.6c-6.9,5.3-15.3,8-25.4,8c-4.1,0-7.8-0.3-11.2-0.9c-3.4-0.6-6.6-1.5-9.6-2.7s-5.8-2.8-8.5-4.7
		c-2.7-1.9-5.2-4.2-7.8-6.9L177.2,623.2z"/>
	<path fill="#659DBE" d="M329.4,645.1l-10-10.7c-1.9,1.9-4,3.6-6.5,5.2c-2.5,1.6-5.1,2.9-8,4c-2.9,1.1-6,2-9.2,2.6
		c-3.3,0.6-6.7,0.9-10.1,0.9c-4.8,0-9.2-0.7-13.3-2s-7.6-3.3-10.6-5.9c-3-2.6-5.3-5.7-7-9.4c-1.7-3.7-2.5-7.8-2.5-12.5
		c0-4.5,0.6-8.4,1.9-11.8s2.9-6.3,5-8.9c2.1-2.6,4.5-4.9,7.2-6.9c2.7-2,5.5-3.9,8.5-5.7c-1.5-1.6-3-3.3-4.4-5.2
		c-1.4-1.9-2.7-3.9-3.8-6c-1.1-2.1-2.1-4.4-2.8-6.7c-0.7-2.3-1-4.7-1-7.2c0-4,0.8-7.6,2.4-10.6c1.6-3,3.7-5.6,6.3-7.6
		c2.6-2,5.5-3.6,8.7-4.6c3.2-1,6.4-1.5,9.6-1.5c3.3,0,6.3,0.4,9.1,1.3c2.8,0.9,5.3,2.2,7.5,4c2.1,1.8,3.8,4,5,6.6
		c1.2,2.6,1.8,5.7,1.8,9.2c0,3.8-0.6,7.3-1.9,10.2s-3.1,5.6-5.4,8c-2.2,2.4-4.8,4.5-7.7,6.4c-2.9,1.9-5.8,3.7-8.8,5.3
		c2.3,2.6,4.7,5.4,7.4,8.3c2.6,2.9,5.3,5.8,8,8.8c2.7,2.9,5.4,5.8,8.1,8.7c2.7,2.9,5.2,5.6,7.7,8.1c1.4-2.1,2.7-4,3.8-5.8
		c1.1-1.8,2.1-3.5,3.1-5.2c0.9-1.7,1.8-3.4,2.6-5.1c0.8-1.7,1.6-3.5,2.4-5.4h13.1c-1.9,4.3-4.3,8.7-7.4,13.4s-6.6,9.6-10.8,14.7
		l20.5,19H329.4z M312.7,627.1c-5.7-5.7-11.2-11.7-16.6-17.9c-5.4-6.2-10.8-12.2-16.4-18.2c-1.7,1.2-3.4,2.6-5.2,4
		c-1.8,1.4-3.4,3-5,4.8c-1.5,1.8-2.8,3.8-3.7,6.1c-1,2.2-1.5,4.8-1.5,7.7c0,3,0.5,5.9,1.5,8.7c1,2.8,2.5,5.2,4.4,7.4
		c1.9,2.1,4.4,3.8,7.4,5.1c3,1.3,6.4,1.9,10.4,1.9c2.1,0,4.3-0.2,6.7-0.7c2.3-0.4,4.6-1.1,6.8-1.9c2.2-0.8,4.3-1.8,6.3-3
		C309.8,629.9,311.5,628.6,312.7,627.1z M301.7,557.5c0-2.6-0.4-4.8-1.1-6.7c-0.7-1.8-1.7-3.3-2.8-4.5c-1.2-1.1-2.5-2-4.1-2.5
		c-1.5-0.5-3.1-0.8-4.8-0.8c-2,0-3.9,0.3-5.7,1c-1.8,0.7-3.4,1.7-4.7,2.9c-1.4,1.3-2.4,2.8-3.2,4.5c-0.8,1.8-1.2,3.7-1.2,5.9
		c0,1.9,0.3,3.8,0.8,5.7c0.5,1.9,1.3,3.8,2.2,5.6c0.9,1.8,2,3.6,3.2,5.3c1.2,1.7,2.5,3.3,3.8,4.9c2.5-1.5,4.8-3,6.9-4.5
		c2.1-1.6,4-3.2,5.6-4.9c1.6-1.7,2.8-3.6,3.7-5.5C301.2,562,301.7,559.8,301.7,557.5z"/>
	<path fill="#FFFFFF" d="M449.9,537.3h12.4l-25.6,107.7h-12l-20.8-87.6l-21.9,87.6h-11.2l-26.1-107.7h12.6l19.5,88.8l22.6-88.8h9.2
		l22.1,88.8L449.9,537.3z"/>
</g>
</svg>
